<mxfile host="app.diagrams.net" modified="2023-03-29T21:57:35.411Z" agent="Mozilla/5.0 (Macintosh; Intel Mac OS X 10_15_7) AppleWebKit/537.36 (KHTML, like Gecko) Chrome/111.0.0.0 Safari/537.36" etag="J52UIep3fbcIqSEekRaI" version="21.1.2" type="device">
  <diagram name="Page-1" id="6OQDae9knBBFRzwUM4KT">
    <mxGraphModel dx="1858" dy="960" grid="1" gridSize="10" guides="1" tooltips="1" connect="1" arrows="1" fold="1" page="1" pageScale="1" pageWidth="850" pageHeight="1100" math="0" shadow="0">
      <root>
        <mxCell id="0" />
        <mxCell id="1" parent="0" />
        <mxCell id="bTC-PyMtZJ-8rERHmYIT-1" value="Actor" style="shape=umlActor;verticalLabelPosition=bottom;verticalAlign=top;html=1;" vertex="1" parent="1">
          <mxGeometry x="130" y="160" width="30" height="60" as="geometry" />
        </mxCell>
        <mxCell id="bTC-PyMtZJ-8rERHmYIT-2" value="&lt;b&gt;to_do app&lt;/b&gt;&lt;br&gt;[software system]&lt;br&gt;Allow user to maintain to do tasks, add, in progress and delete" style="rounded=0;whiteSpace=wrap;html=1;" vertex="1" parent="1">
          <mxGeometry x="350" y="160" width="130" height="120" as="geometry" />
        </mxCell>
        <mxCell id="bTC-PyMtZJ-8rERHmYIT-3" value="&lt;b&gt;Trello (API)&lt;/b&gt;&lt;br&gt;[software system]&lt;br&gt;a 3rd party api to provide functions to store, and maintian to do tasks status, and more&amp;nbsp;&amp;nbsp;&lt;br&gt;" style="whiteSpace=wrap;html=1;aspect=fixed;" vertex="1" parent="1">
          <mxGeometry x="640" y="155" width="130" height="130" as="geometry" />
        </mxCell>
        <mxCell id="bTC-PyMtZJ-8rERHmYIT-4" value="to take actions &lt;br&gt;on the to do app" style="shape=flexArrow;endArrow=classic;startArrow=classic;html=1;rounded=0;" edge="1" parent="1">
          <mxGeometry width="100" height="100" relative="1" as="geometry">
            <mxPoint x="200" y="189.5" as="sourcePoint" />
            <mxPoint x="340" y="189.5" as="targetPoint" />
          </mxGeometry>
        </mxCell>
        <mxCell id="bTC-PyMtZJ-8rERHmYIT-5" value="to do app &lt;br&gt;base on user&lt;br&gt;and send requsts&lt;br&gt;to maintian user&amp;nbsp;&lt;br&gt;to do tasks&amp;nbsp;" style="shape=flexArrow;endArrow=classic;startArrow=classic;html=1;rounded=0;exitX=1;exitY=0.25;exitDx=0;exitDy=0;" edge="1" parent="1" source="bTC-PyMtZJ-8rERHmYIT-2">
          <mxGeometry width="100" height="100" relative="1" as="geometry">
            <mxPoint x="500" y="190" as="sourcePoint" />
            <mxPoint x="630" y="190" as="targetPoint" />
          </mxGeometry>
        </mxCell>
        <mxCell id="bTC-PyMtZJ-8rERHmYIT-6" value="&lt;u&gt;Context Diagram&lt;/u&gt;" style="text;strokeColor=none;align=center;fillColor=none;html=1;verticalAlign=middle;whiteSpace=wrap;rounded=0;" vertex="1" parent="1">
          <mxGeometry x="80" y="80" width="170" height="30" as="geometry" />
        </mxCell>
        <mxCell id="bTC-PyMtZJ-8rERHmYIT-9" value="A user to use to_do app to keep track tasks to do and update it&#39;s status" style="rounded=0;whiteSpace=wrap;html=1;" vertex="1" parent="1">
          <mxGeometry x="85" y="250" width="120" height="60" as="geometry" />
        </mxCell>
        <mxCell id="bTC-PyMtZJ-8rERHmYIT-12" value="&lt;u&gt;Container&amp;nbsp; Diagram&lt;/u&gt;" style="text;strokeColor=none;align=center;fillColor=none;html=1;verticalAlign=middle;whiteSpace=wrap;rounded=0;" vertex="1" parent="1">
          <mxGeometry x="80" y="380" width="170" height="30" as="geometry" />
        </mxCell>
        <mxCell id="bTC-PyMtZJ-8rERHmYIT-13" value="Actor" style="shape=umlActor;verticalLabelPosition=bottom;verticalAlign=top;html=1;" vertex="1" parent="1">
          <mxGeometry x="130" y="455" width="30" height="60" as="geometry" />
        </mxCell>
        <mxCell id="bTC-PyMtZJ-8rERHmYIT-14" value="" style="rounded=0;whiteSpace=wrap;html=1;" vertex="1" parent="1">
          <mxGeometry x="350" y="455" width="470" height="255" as="geometry" />
        </mxCell>
        <mxCell id="bTC-PyMtZJ-8rERHmYIT-15" value="&lt;b&gt;Trello (API)&lt;/b&gt;&lt;br&gt;[software system]&lt;br&gt;a 3rd party api to provide functions to store card, card representing a list of tasks, provide API to maintian tasks status, and many more functions, allow user to come back to user&#39;s tasks list any time.&amp;nbsp;&amp;nbsp;" style="whiteSpace=wrap;html=1;aspect=fixed;" vertex="1" parent="1">
          <mxGeometry x="550" y="860" width="230" height="230" as="geometry" />
        </mxCell>
        <mxCell id="bTC-PyMtZJ-8rERHmYIT-17" value="to do app &lt;br&gt;base on user&lt;br&gt;and send requsts&lt;br&gt;to maintian user&amp;nbsp;&lt;br&gt;to do tasks&amp;nbsp;" style="shape=flexArrow;endArrow=classic;startArrow=classic;html=1;rounded=0;width=11;startSize=8.33;endSize=8.33;startWidth=24;exitX=0.698;exitY=-0.012;exitDx=0;exitDy=0;exitPerimeter=0;" edge="1" parent="1" source="bTC-PyMtZJ-8rERHmYIT-15">
          <mxGeometry x="-0.0134" width="100" height="100" relative="1" as="geometry">
            <mxPoint x="550" y="820" as="sourcePoint" />
            <mxPoint x="711" y="720" as="targetPoint" />
            <mxPoint as="offset" />
          </mxGeometry>
        </mxCell>
        <mxCell id="bTC-PyMtZJ-8rERHmYIT-18" value="A user to use to_do app to keep track tasks to do and update it&#39;s status" style="rounded=0;whiteSpace=wrap;html=1;" vertex="1" parent="1">
          <mxGeometry x="85" y="545" width="120" height="60" as="geometry" />
        </mxCell>
        <mxCell id="bTC-PyMtZJ-8rERHmYIT-23" value="" style="endArrow=classic;html=1;rounded=0;dashed=1;" edge="1" parent="1">
          <mxGeometry relative="1" as="geometry">
            <mxPoint x="210" y="470" as="sourcePoint" />
            <mxPoint x="350" y="470" as="targetPoint" />
          </mxGeometry>
        </mxCell>
        <mxCell id="bTC-PyMtZJ-8rERHmYIT-24" value="Add Tasks" style="edgeLabel;resizable=0;html=1;align=center;verticalAlign=middle;" connectable="0" vertex="1" parent="bTC-PyMtZJ-8rERHmYIT-23">
          <mxGeometry relative="1" as="geometry" />
        </mxCell>
        <mxCell id="bTC-PyMtZJ-8rERHmYIT-26" value="" style="endArrow=classic;html=1;rounded=0;dashed=1;" edge="1" parent="1">
          <mxGeometry relative="1" as="geometry">
            <mxPoint x="210" y="489.5" as="sourcePoint" />
            <mxPoint x="350" y="489.5" as="targetPoint" />
          </mxGeometry>
        </mxCell>
        <mxCell id="bTC-PyMtZJ-8rERHmYIT-27" value="Delete Task" style="edgeLabel;resizable=0;html=1;align=center;verticalAlign=middle;" connectable="0" vertex="1" parent="bTC-PyMtZJ-8rERHmYIT-26">
          <mxGeometry relative="1" as="geometry" />
        </mxCell>
        <mxCell id="bTC-PyMtZJ-8rERHmYIT-28" value="" style="endArrow=classic;html=1;rounded=0;dashed=1;" edge="1" parent="1">
          <mxGeometry relative="1" as="geometry">
            <mxPoint x="210" y="510" as="sourcePoint" />
            <mxPoint x="350" y="510" as="targetPoint" />
          </mxGeometry>
        </mxCell>
        <mxCell id="bTC-PyMtZJ-8rERHmYIT-29" value="Update Task" style="edgeLabel;resizable=0;html=1;align=center;verticalAlign=middle;" connectable="0" vertex="1" parent="bTC-PyMtZJ-8rERHmYIT-28">
          <mxGeometry relative="1" as="geometry" />
        </mxCell>
        <mxCell id="bTC-PyMtZJ-8rERHmYIT-30" value="" style="endArrow=classic;html=1;rounded=0;dashed=1;" edge="1" parent="1">
          <mxGeometry relative="1" as="geometry">
            <mxPoint x="425" y="640" as="sourcePoint" />
            <mxPoint x="225" y="640.5" as="targetPoint" />
          </mxGeometry>
        </mxCell>
        <mxCell id="bTC-PyMtZJ-8rERHmYIT-31" value="format data &amp;amp; present to user" style="edgeLabel;resizable=0;html=1;align=center;verticalAlign=middle;" connectable="0" vertex="1" parent="bTC-PyMtZJ-8rERHmYIT-30">
          <mxGeometry relative="1" as="geometry" />
        </mxCell>
        <mxCell id="bTC-PyMtZJ-8rERHmYIT-33" value="&lt;b&gt;to_do app&lt;/b&gt;&lt;br&gt;[software system]" style="text;strokeColor=none;align=left;fillColor=none;html=1;verticalAlign=middle;whiteSpace=wrap;rounded=0;" vertex="1" parent="1">
          <mxGeometry x="355" y="670" width="140" height="30" as="geometry" />
        </mxCell>
        <mxCell id="bTC-PyMtZJ-8rERHmYIT-35" value="Web Application&lt;br&gt;&lt;font style=&quot;font-size: 10px;&quot;&gt;[Container : Flask framework ]&lt;br&gt;call trello api :&lt;br&gt;new, complete , incomplete&lt;br&gt;&lt;/font&gt;" style="rounded=1;whiteSpace=wrap;html=1;" vertex="1" parent="1">
          <mxGeometry x="615" y="600" width="175" height="80" as="geometry" />
        </mxCell>
        <mxCell id="bTC-PyMtZJ-8rERHmYIT-36" value="html&amp;nbsp;&lt;br&gt;template" style="rounded=1;whiteSpace=wrap;html=1;" vertex="1" parent="1">
          <mxGeometry x="425" y="620" width="120" height="40" as="geometry" />
        </mxCell>
        <mxCell id="bTC-PyMtZJ-8rERHmYIT-37" value="trello_items.py&lt;br&gt;[Container]&lt;br&gt;main logic, set id, set token,&lt;br&gt;add_item, start_item, complete_item, imcomplete_item&lt;br&gt;move_card" style="rounded=1;whiteSpace=wrap;html=1;" vertex="1" parent="1">
          <mxGeometry x="615" y="470" width="180" height="100" as="geometry" />
        </mxCell>
        <mxCell id="bTC-PyMtZJ-8rERHmYIT-41" style="edgeStyle=orthogonalEdgeStyle;rounded=0;orthogonalLoop=1;jettySize=auto;html=1;exitX=1;exitY=0.5;exitDx=0;exitDy=0;entryX=-0.002;entryY=0.398;entryDx=0;entryDy=0;entryPerimeter=0;dashed=1;" edge="1" parent="1" source="bTC-PyMtZJ-8rERHmYIT-38" target="bTC-PyMtZJ-8rERHmYIT-37">
          <mxGeometry relative="1" as="geometry">
            <Array as="points">
              <mxPoint x="588" y="510" />
            </Array>
          </mxGeometry>
        </mxCell>
        <mxCell id="bTC-PyMtZJ-8rERHmYIT-38" value="todo_item.py&lt;br&gt;[Container : setClasses]&lt;br&gt;- set id, name and status" style="rounded=1;whiteSpace=wrap;html=1;" vertex="1" parent="1">
          <mxGeometry x="390" y="470" width="170" height="80" as="geometry" />
        </mxCell>
        <mxCell id="bTC-PyMtZJ-8rERHmYIT-40" value="" style="endArrow=none;dashed=1;html=1;dashPattern=1 3;strokeWidth=2;rounded=0;exitX=1;exitY=0.5;exitDx=0;exitDy=0;startArrow=classic;startFill=0;" edge="1" parent="1" source="bTC-PyMtZJ-8rERHmYIT-36" target="bTC-PyMtZJ-8rERHmYIT-35">
          <mxGeometry width="50" height="50" relative="1" as="geometry">
            <mxPoint x="560" y="670" as="sourcePoint" />
            <mxPoint x="610" y="620" as="targetPoint" />
          </mxGeometry>
        </mxCell>
        <mxCell id="bTC-PyMtZJ-8rERHmYIT-42" style="rounded=0;orthogonalLoop=1;jettySize=auto;html=1;entryX=0.576;entryY=0.006;entryDx=0;entryDy=0;entryPerimeter=0;dashed=1;exitX=0.558;exitY=1.012;exitDx=0;exitDy=0;exitPerimeter=0;" edge="1" parent="1" source="bTC-PyMtZJ-8rERHmYIT-37" target="bTC-PyMtZJ-8rERHmYIT-35">
          <mxGeometry relative="1" as="geometry">
            <mxPoint x="677.5" y="582.36" as="sourcePoint" />
            <mxPoint x="732.5" y="582.36" as="targetPoint" />
          </mxGeometry>
        </mxCell>
        <mxCell id="bTC-PyMtZJ-8rERHmYIT-87" value="&lt;u&gt;Components&amp;nbsp; Diagram&lt;/u&gt;" style="text;strokeColor=none;align=center;fillColor=none;html=1;verticalAlign=middle;whiteSpace=wrap;rounded=0;" vertex="1" parent="1">
          <mxGeometry x="40" y="1230" width="170" height="30" as="geometry" />
        </mxCell>
        <mxCell id="bTC-PyMtZJ-8rERHmYIT-88" value="Actor" style="shape=umlActor;verticalLabelPosition=bottom;verticalAlign=top;html=1;" vertex="1" parent="1">
          <mxGeometry x="10" y="1450" width="30" height="60" as="geometry" />
        </mxCell>
        <mxCell id="bTC-PyMtZJ-8rERHmYIT-89" value="" style="rounded=0;whiteSpace=wrap;html=1;" vertex="1" parent="1">
          <mxGeometry x="165" y="1300" width="665" height="470" as="geometry" />
        </mxCell>
        <mxCell id="bTC-PyMtZJ-8rERHmYIT-90" value="" style="whiteSpace=wrap;html=1;aspect=fixed;" vertex="1" parent="1">
          <mxGeometry x="560" y="1880" width="230" height="230" as="geometry" />
        </mxCell>
        <mxCell id="bTC-PyMtZJ-8rERHmYIT-91" value="[REST API CALL]" style="shape=flexArrow;endArrow=classic;startArrow=classic;html=1;rounded=0;width=11;startSize=8.33;endSize=8.33;startWidth=24;entryX=0.5;entryY=1;entryDx=0;entryDy=0;" edge="1" parent="1" target="bTC-PyMtZJ-8rERHmYIT-102">
          <mxGeometry x="-0.0134" width="100" height="100" relative="1" as="geometry">
            <mxPoint x="605" y="1877" as="sourcePoint" />
            <mxPoint x="720" y="1740" as="targetPoint" />
            <mxPoint as="offset" />
          </mxGeometry>
        </mxCell>
        <mxCell id="bTC-PyMtZJ-8rERHmYIT-92" value="A user to use to_do app to keep track tasks to do and update it&#39;s status" style="rounded=0;whiteSpace=wrap;html=1;" vertex="1" parent="1">
          <mxGeometry x="10" y="1620" width="120" height="60" as="geometry" />
        </mxCell>
        <mxCell id="bTC-PyMtZJ-8rERHmYIT-93" value="" style="endArrow=classic;html=1;rounded=0;dashed=1;" edge="1" parent="1">
          <mxGeometry relative="1" as="geometry">
            <mxPoint x="50" y="1450" as="sourcePoint" />
            <mxPoint x="165" y="1450" as="targetPoint" />
          </mxGeometry>
        </mxCell>
        <mxCell id="bTC-PyMtZJ-8rERHmYIT-94" value="Add Tasks&lt;br&gt;[https]" style="edgeLabel;resizable=0;html=1;align=center;verticalAlign=middle;" connectable="0" vertex="1" parent="bTC-PyMtZJ-8rERHmYIT-93">
          <mxGeometry relative="1" as="geometry" />
        </mxCell>
        <mxCell id="bTC-PyMtZJ-8rERHmYIT-95" value="" style="endArrow=classic;html=1;rounded=0;dashed=1;" edge="1" parent="1">
          <mxGeometry relative="1" as="geometry">
            <mxPoint x="50" y="1489" as="sourcePoint" />
            <mxPoint x="165" y="1489.47" as="targetPoint" />
          </mxGeometry>
        </mxCell>
        <mxCell id="bTC-PyMtZJ-8rERHmYIT-96" value="Delete Task&lt;br&gt;[https]" style="edgeLabel;resizable=0;html=1;align=center;verticalAlign=middle;" connectable="0" vertex="1" parent="bTC-PyMtZJ-8rERHmYIT-95">
          <mxGeometry relative="1" as="geometry" />
        </mxCell>
        <mxCell id="bTC-PyMtZJ-8rERHmYIT-97" value="" style="endArrow=classic;html=1;rounded=0;dashed=1;" edge="1" parent="1">
          <mxGeometry relative="1" as="geometry">
            <mxPoint x="50" y="1524" as="sourcePoint" />
            <mxPoint x="165" y="1523.95" as="targetPoint" />
          </mxGeometry>
        </mxCell>
        <mxCell id="bTC-PyMtZJ-8rERHmYIT-98" value="Update Task&lt;br&gt;[https]" style="edgeLabel;resizable=0;html=1;align=center;verticalAlign=middle;" connectable="0" vertex="1" parent="bTC-PyMtZJ-8rERHmYIT-97">
          <mxGeometry relative="1" as="geometry" />
        </mxCell>
        <mxCell id="bTC-PyMtZJ-8rERHmYIT-99" value="" style="endArrow=classic;html=1;rounded=0;dashed=1;" edge="1" parent="1">
          <mxGeometry relative="1" as="geometry">
            <mxPoint x="260" y="1669.52" as="sourcePoint" />
            <mxPoint x="130" y="1669.52" as="targetPoint" />
          </mxGeometry>
        </mxCell>
        <mxCell id="bTC-PyMtZJ-8rERHmYIT-100" value="format data &amp;amp;&lt;br&gt;&amp;nbsp;present to user" style="edgeLabel;resizable=0;html=1;align=center;verticalAlign=middle;" connectable="0" vertex="1" parent="bTC-PyMtZJ-8rERHmYIT-99">
          <mxGeometry relative="1" as="geometry" />
        </mxCell>
        <mxCell id="bTC-PyMtZJ-8rERHmYIT-101" value="&lt;b&gt;to_do app&lt;/b&gt;&lt;br&gt;[software system]" style="text;strokeColor=none;align=left;fillColor=none;html=1;verticalAlign=middle;whiteSpace=wrap;rounded=0;" vertex="1" parent="1">
          <mxGeometry x="180" y="1730" width="140" height="30" as="geometry" />
        </mxCell>
        <mxCell id="bTC-PyMtZJ-8rERHmYIT-102" value="Web Application&lt;br&gt;&lt;font style=&quot;font-size: 10px;&quot;&gt;[Container : Flask framework ]&lt;br&gt;call trello api :&lt;br&gt;new, complete , incomplete&lt;br&gt;&lt;/font&gt;" style="rounded=1;whiteSpace=wrap;html=1;" vertex="1" parent="1">
          <mxGeometry x="525" y="1610" width="160" height="120" as="geometry" />
        </mxCell>
        <mxCell id="bTC-PyMtZJ-8rERHmYIT-103" value="html&amp;nbsp;&lt;br&gt;template" style="rounded=1;whiteSpace=wrap;html=1;" vertex="1" parent="1">
          <mxGeometry x="260" y="1650" width="120" height="40" as="geometry" />
        </mxCell>
        <mxCell id="bTC-PyMtZJ-8rERHmYIT-104" value="" style="rounded=1;whiteSpace=wrap;html=1;" vertex="1" parent="1">
          <mxGeometry x="370" y="1320" width="440" height="260" as="geometry" />
        </mxCell>
        <mxCell id="bTC-PyMtZJ-8rERHmYIT-106" value="todo_item.py&lt;br&gt;[Container : setClasses]&lt;br&gt;- set id, name and status" style="rounded=1;whiteSpace=wrap;html=1;" vertex="1" parent="1">
          <mxGeometry x="190" y="1430" width="170" height="80" as="geometry" />
        </mxCell>
        <mxCell id="bTC-PyMtZJ-8rERHmYIT-107" value="" style="endArrow=none;dashed=1;html=1;dashPattern=1 3;strokeWidth=2;rounded=0;exitX=1;exitY=0.5;exitDx=0;exitDy=0;startArrow=classic;startFill=0;" edge="1" parent="1" source="bTC-PyMtZJ-8rERHmYIT-103" target="bTC-PyMtZJ-8rERHmYIT-102">
          <mxGeometry width="50" height="50" relative="1" as="geometry">
            <mxPoint x="560" y="1460" as="sourcePoint" />
            <mxPoint x="610" y="1410" as="targetPoint" />
          </mxGeometry>
        </mxCell>
        <mxCell id="bTC-PyMtZJ-8rERHmYIT-108" style="rounded=0;orthogonalLoop=1;jettySize=auto;html=1;entryX=0.576;entryY=0.006;entryDx=0;entryDy=0;entryPerimeter=0;dashed=1;exitX=0.558;exitY=1.012;exitDx=0;exitDy=0;exitPerimeter=0;" edge="1" parent="1" source="bTC-PyMtZJ-8rERHmYIT-104" target="bTC-PyMtZJ-8rERHmYIT-102">
          <mxGeometry relative="1" as="geometry">
            <mxPoint x="677.5" y="1372.3600000000001" as="sourcePoint" />
            <mxPoint x="732.5" y="1372.3600000000001" as="targetPoint" />
          </mxGeometry>
        </mxCell>
        <mxCell id="bTC-PyMtZJ-8rERHmYIT-117" value="Set ID&lt;br&gt;[component]" style="rounded=1;whiteSpace=wrap;html=1;" vertex="1" parent="1">
          <mxGeometry x="660" y="1350" width="120" height="60" as="geometry" />
        </mxCell>
        <mxCell id="bTC-PyMtZJ-8rERHmYIT-118" value="&lt;b&gt;trello_item.py&lt;/b&gt;&lt;br&gt;[container]" style="text;strokeColor=none;align=left;fillColor=none;html=1;verticalAlign=middle;whiteSpace=wrap;rounded=0;" vertex="1" parent="1">
          <mxGeometry x="390" y="1340" width="140" height="30" as="geometry" />
        </mxCell>
        <mxCell id="bTC-PyMtZJ-8rERHmYIT-119" value="Set Token&lt;br&gt;[component]" style="rounded=1;whiteSpace=wrap;html=1;" vertex="1" parent="1">
          <mxGeometry x="525" y="1420" width="120" height="60" as="geometry" />
        </mxCell>
        <mxCell id="bTC-PyMtZJ-8rERHmYIT-120" value="Add Item&lt;br&gt;[component]" style="rounded=1;whiteSpace=wrap;html=1;" vertex="1" parent="1">
          <mxGeometry x="660" y="1420" width="120" height="60" as="geometry" />
        </mxCell>
        <mxCell id="bTC-PyMtZJ-8rERHmYIT-121" value="Start Item&lt;br&gt;[component]" style="rounded=1;whiteSpace=wrap;html=1;" vertex="1" parent="1">
          <mxGeometry x="525" y="1500" width="120" height="60" as="geometry" />
        </mxCell>
        <mxCell id="bTC-PyMtZJ-8rERHmYIT-122" value="Complete Item&lt;br&gt;[component]" style="rounded=1;whiteSpace=wrap;html=1;" vertex="1" parent="1">
          <mxGeometry x="660" y="1500" width="120" height="60" as="geometry" />
        </mxCell>
        <mxCell id="bTC-PyMtZJ-8rERHmYIT-123" value="imcomplete Item&lt;br&gt;[component]" style="rounded=1;whiteSpace=wrap;html=1;" vertex="1" parent="1">
          <mxGeometry x="390" y="1500" width="120" height="60" as="geometry" />
        </mxCell>
        <mxCell id="bTC-PyMtZJ-8rERHmYIT-124" value="move card&lt;br&gt;[component]" style="rounded=1;whiteSpace=wrap;html=1;" vertex="1" parent="1">
          <mxGeometry x="390" y="1420" width="120" height="60" as="geometry" />
        </mxCell>
        <mxCell id="bTC-PyMtZJ-8rERHmYIT-127" value="" style="rounded=1;whiteSpace=wrap;html=1;" vertex="1" parent="1">
          <mxGeometry x="570" y="1930" width="210" height="110" as="geometry" />
        </mxCell>
        <mxCell id="bTC-PyMtZJ-8rERHmYIT-128" value="&lt;b&gt;Trello API&lt;/b&gt;&lt;br&gt;[software system]" style="text;strokeColor=none;align=left;fillColor=none;html=1;verticalAlign=middle;whiteSpace=wrap;rounded=0;" vertex="1" parent="1">
          <mxGeometry x="560" y="1880" width="140" height="30" as="geometry" />
        </mxCell>
        <mxCell id="bTC-PyMtZJ-8rERHmYIT-130" value="card" style="rounded=1;whiteSpace=wrap;html=1;" vertex="1" parent="1">
          <mxGeometry x="575" y="1960" width="60" height="30" as="geometry" />
        </mxCell>
        <mxCell id="bTC-PyMtZJ-8rERHmYIT-131" value="board" style="rounded=1;whiteSpace=wrap;html=1;" vertex="1" parent="1">
          <mxGeometry x="597.5" y="1980" width="65" height="30" as="geometry" />
        </mxCell>
        <mxCell id="bTC-PyMtZJ-8rERHmYIT-132" value="template" style="rounded=1;whiteSpace=wrap;html=1;" vertex="1" parent="1">
          <mxGeometry x="632.5" y="2000" width="65" height="30" as="geometry" />
        </mxCell>
        <mxCell id="bTC-PyMtZJ-8rERHmYIT-133" value="&lt;b&gt;REST API&lt;/b&gt;&lt;br&gt;" style="text;strokeColor=none;align=left;fillColor=none;html=1;verticalAlign=middle;whiteSpace=wrap;rounded=0;" vertex="1" parent="1">
          <mxGeometry x="707.5" y="1930" width="62.5" height="30" as="geometry" />
        </mxCell>
      </root>
    </mxGraphModel>
  </diagram>
</mxfile>
